<?xml version="1.0" standalone="no"?>
<!DOCTYPE svg PUBLIC "-//W3C//DTD SVG 20010904//EN"
 "http://www.w3.org/TR/2001/REC-SVG-20010904/DTD/svg10.dtd">
<svg version="1.0" xmlns="http://www.w3.org/2000/svg"
 width="824.000000pt" height="449.000000pt" viewBox="0 0 824.000000 449.000000"
 preserveAspectRatio="xMidYMid meet">
<metadata>
</metadata>
<g transform="translate(0.000000,449.000000) scale(0.100000,-0.100000)" fill="#000000" stroke="none"> <path d="M2120 2400 l0 -650 30 0 30 0 0 650 0 650 -30 0 -30 0 0 -650z"/> <path d="M782 2903 l-2 -33 -70 0 c-117 0 -110 29 -110 -428 l0 -389 23 -21 23 -22 602 0 c589 0 602 0 622 20 15 15 20 33 20 75 0 54 0 55 30 55 17 0 30 4 30 8 0 5 -13 7 -30 4 l-30 -4 0 329 c0 268 -3 333 -14 349 -14 18 -33 19 -550 22 l-535 3 -4 32 -4 32 -1 -32z m-2 -68 c0 -12 -13 -15 -55 -15 -43 0 -56 -4 -65 -19 -6 -13 -10 -146 -10 -365 0 -300 2 -347 16 -360 14 -14 80 -16 575 -16 367 0 567 4 580 10 14 8 19 21 19 50 0 29 4 40 15 40 11 0 15 -12 15 -49 0 -87 46 -81 -621 -81 -576 0 -589 0 -609 20 -19 19 -20 33 -20 394 0 327 2 377 16 390 22 22 144 23 144 1z m395 -67 c21 -47 126 -49 147 -2 l11 24 239 0 238 0 0 -350 0 -350 -565 0 -565 0 0 350 0 350 243 0 c239 0 242 0 252 -22z"/> <path d="M1190 2631 c-5 -11 -10 -27 -10 -35 0 -13 -4 -13 -30 2 -30 17 -30 17 -67 -20 -37 -38 -37 -38 -20 -67 l17 -28 -33 -9 c-31 -9 -32 -12 -32 -59 0 -46 3 -51 30 -65 30 -15 30 -16 15 -43 -15 -27 -14 -29 23 -63 36 -33 38 -34 66 -19 28 14 29 14 36 -13 8 -32 21 -42 58 -42 38 0 67 17 67 39 0 26 8 30 41 18 27 -10 32 -9 61 21 30 29 32 34 21 63 -11 29 -10 31 18 41 27 9 29 14 29 59 0 44 -3 51 -27 61 -16 7 -29 13 -30 13 -2 1 3 16 9 33 11 29 10 34 -17 62 -29 30 -58 39 -70 20 -10 -17 -35 -11 -35 8 0 29 -21 42 -67 42 -32 0 -45 -5
-53 -19z m98 -39 c5 -31 27 -38 56 -19 22 15 25 14 50 -12 24 -25 25 -28 10
-49 -21 -30 -12 -49 25 -57 27 -6 31 -11 31 -41 0 -31 -4 -35 -31 -41 -39 -7
-46 -26 -24 -59 17 -26 16 -27 -8 -51 -24 -24 -25 -25 -51 -8 -33 22 -52 15
-59 -24 -6 -28 -10 -31 -42 -31 -27 0 -35 4 -35 18 0 10 -6 27 -14 37 -13 18
-14 18 -41 1 -27 -18 -28 -18 -53 8 -23 23 -25 28 -13 50 18 32 8 56 -24 56
-22 0 -25 4 -25 39 0 35 3 39 30 45 32 6 37 20 18 61 -10 22 -8 29 12 50 21
22 25 23 44 10 33 -24 54 -18 61 16 6 28 10 30 43 27 30 -2 38 -7 40 -26z"/>
<path d="M1199 2495 c-82 -44 -47 -175 47 -175 46 0 63 8 79 41 24 45 19 87
-14 120 -33 32 -70 37 -112 14z m74 -17 c52 -27 61 -75 22 -113 -13 -14 -36
-25 -50 -25 -62 0 -89 89 -39 129 31 24 38 25 67 9z"/>
<path d="M2548 2666 c-58 -21 -87 -43 -119 -94 -25 -40 -29 -56 -29 -117 0
-61 4 -77 29 -117 33 -53 95 -93 158 -103 62 -10 149 11 186 45 l32 29 -32 32
-31 32 -27 -21 c-42 -34 -87 -38 -139 -13 -99 49 -101 183 -3 236 44 23 109
16 143 -16 l25 -23 31 32 32 31 -24 26 c-45 48 -158 67 -232 41z"/>
<path d="M7478 2668 c-20 -5 -55 -26 -78 -46 -181 -155 -32 -431 206 -384 52
11 124 52 124 71 0 4 -13 20 -29 35 l-30 28 -28 -19 c-39 -28 -78 -35 -122
-23 -56 15 -84 50 -88 112 -5 63 9 94 56 125 46 31 98 30 146 -3 l38 -26 31
32 31 31 -34 29 c-53 45 -140 60 -223 38z"/>
<path d="M6900 2454 l0 -215 53 3 52 3 3 51 3 51 70 7 c81 7 125 24 156 57 31
35 45 96 32 144 -24 90 -78 114 -246 115 l-123 0 0 -216z m250 111 c26 -23 27
-76 1 -99 -13 -12 -38 -18 -83 -19 l-63 -2 -3 59 c-4 86 -2 89 68 84 39 -3 66
-11 80 -23z"/>
<path d="M5950 2611 c0 -36 -3 -40 -27 -43 -24 -3 -28 -8 -31 -40 -3 -36 -2
-38 27 -38 l31 0 0 -96 c0 -92 1 -97 29 -125 26 -25 37 -29 88 -29 77 0 90 9
74 49 -11 24 -20 30 -49 33 l-37 3 -3 83 -3 82 41 0 41 0 -3 38 c-3 35 -5 37
-40 40 -35 3 -37 5 -40 40 -3 37 -4 37 -50 40 l-48 3 0 -40z"/>
<path d="M2947 2568 c-78 -21 -137 -115 -122 -191 10 -48 52 -103 92 -122 26
-13 54 -16 104 -13 72 4 104 20 142 70 21 28 33 102 23 142 -8 32 -51 83 -85
100 -38 20 -110 26 -154 14z m113 -98 c29 -29 28 -102 -2 -130 -73 -68 -170
44 -107 124 26 33 79 36 109 6z"/>
<path d="M3380 2564 c-22 -10 -36 -11 -38 -4 -2 5 -24 10 -48 10 l-44 0 0
-165 0 -165 50 0 50 0 0 99 c0 84 3 102 21 125 20 26 52 33 77 18 20 -13 32
-71 32 -159 l0 -83 50 0 50 0 0 105 c0 94 2 106 22 125 23 21 54 26 76 12 20
-13 32 -71 32 -159 l0 -83 50 0 50 0 0 110 c0 158 -28 212 -117 226 -35 5 -53
2 -91 -17 l-47 -24 -45 23 c-51 26 -81 27 -130 6z"/>
<path d="M4020 2565 c-22 -10 -36 -12 -38 -5 -2 5 -24 10 -48 10 l-44 0 0
-225 0 -225 50 0 50 0 0 70 c0 67 1 70 19 60 24 -13 111 -13 144 -1 53 20 97
93 97 159 0 50 -35 118 -74 142 -46 28 -112 34 -156 15z m90 -85 c21 -12 42
-73 33 -98 -12 -34 -46 -62 -75 -62 -41 0 -78 40 -78 83 0 68 62 108 120 77z"/>
<path d="M4401 2565 c-55 -17 -86 -47 -107 -101 -30 -78 7 -173 79 -207 45
-22 139 -22 183 -1 118 56 120 238 4 299 -41 21 -111 26 -159 10z m116 -97
c50 -47 16 -148 -51 -148 -53 0 -82 41 -78 108 4 57 84 82 129 40z"/>
<path d="M4845 2565 c-24 -8 -41 -11 -43 -5 -2 6 -26 10 -53 10 l-49 0 2 -162
3 -163 53 -3 52 -3 0 104 c0 95 2 105 23 125 28 27 68 28 90 4 12 -13 17 -43
19 -122 l3 -105 54 -3 54 -3 -5 125 c-5 133 -14 160 -63 192 -35 23 -93 27
-140 9z"/>
<path d="M5231 2570 c-107 -25 -156 -153 -97 -254 33 -57 75 -76 163 -76 50 0
76 5 101 20 17 11 32 23 32 28 0 5 -12 20 -27 34 -25 24 -30 25 -47 12 -29
-21 -89 -18 -120 7 -14 11 -26 25 -26 30 0 5 53 9 119 9 66 0 122 4 125 9 4 5
1 32 -5 60 -12 59 -56 104 -116 120 -43 12 -54 12 -102 1z"/>
<path d="M5647 2561 c-29 -15 -37 -16 -37 -5 0 10 -14 14 -50 14 l-50 0 0
-166 0 -165 53 3 52 3 5 108 c5 119 15 137 71 137 44 0 54 -23 59 -139 l5
-106 48 -3 47 -3 0 123 c0 106 -3 128 -20 156 -36 59 -115 78 -183 43z"/>
<path d="M6291 2570 c-112 -26 -163 -163 -97 -258 37 -54 78 -72 163 -72 50 0
76 5 101 20 17 11 32 23 32 27 0 4 -12 19 -26 34 -25 26 -28 27 -50 12 -45
-29 -142 -3 -144 40 0 4 57 7 126 7 l126 0 -7 43 c-13 78 -45 119 -112 143
-43 15 -63 16 -112 4z"/>
<path d="M6625 2565 c-22 -8 -41 -15 -42 -15 -1 0 -9 -13 -18 -30 -38 -73 -2
-131 93 -150 77 -15 82 -17 82 -34 0 -24 -44 -30 -102 -15 -70 18 -68 19 -84
-19 l-14 -33 37 -16 c26 -10 61 -14 121 -11 80 3 85 4 113 36 61 68 25 141
-79 162 -79 16 -84 18 -80 37 3 15 13 18 53 17 28 -1 60 -4 72 -8 18 -7 24 -2
38 23 9 18 13 36 10 40 -6 11 -95 31 -133 31 -15 -1 -45 -7 -67 -15z"/>
<path d="M530 1985 c0 -29 28 -82 51 -99 21 -14 88 -16 662 -16 703 0 684 -2
706 61 6 18 11 40 11 50 0 18 -26 19 -715 19 -636 0 -715 -2 -715 -15z m535
-36 c10 -32 46 -39 192 -39 l135 0 28 30 28 30 241 0 c260 0 263 -1 222 -51
l-19 -24 -629 -3 c-436 -2 -636 1 -654 8 -22 9 -49 46 -49 65 0 3 112 5 249 5
243 0 250 -1 256 -21z"/>
</g>
</svg>
